<svg width="32" height="32" viewBox="0 0 32 32" fill="none" xmlns="http://www.w3.org/2000/svg">
  <defs>
    <linearGradient id="circleGrad" x1="0%" y1="0%" x2="100%" y2="0%">
      <stop offset="0%" style="stop-color:#06B6D4"/>
      <stop offset="50%" style="stop-color:#3B82F6"/>
      <stop offset="100%" style="stop-color:#8B5CF6"/>
    </linearGradient>
    <linearGradient id="bladeGrad" x1="0%" y1="0%" x2="100%" y2="100%">
      <stop offset="0%" style="stop-color:#8B5CF6"/>
      <stop offset="100%" style="stop-color:#3B82F6"/>
    </linearGradient>
  </defs>
  
  <!-- Incomplete circular band (broken at top-right) -->
  <path d="M16 1 A15 15 0 0 1 31 16 A15 15 0 0 1 16 31 A15 15 0 0 1 1 16 A15 15 0 0 1 16 1" 
        fill="none" stroke="url(#circleGrad)" stroke-width="3" 
        stroke-dasharray="90 10" stroke-dashoffset="0"/>
  
  <!-- 6 trapezoidal aperture blades converging to center -->
  <g transform="rotate(0 16 16)">
    <path d="M16 6 L18 8 L18 12 L16 14 L14 12 L14 8 Z" fill="url(#bladeGrad)"/>
  </g>
  <g transform="rotate(60 16 16)">
    <path d="M16 6 L18 8 L18 12 L16 14 L14 12 L14 8 Z" fill="url(#bladeGrad)"/>
  </g>
  <g transform="rotate(120 16 16)">
    <path d="M16 6 L18 8 L18 12 L16 14 L14 12 L14 8 Z" fill="url(#bladeGrad)"/>
  </g>
  <g transform="rotate(180 16 16)">
    <path d="M16 6 L18 8 L18 12 L16 14 L14 12 L14 8 Z" fill="url(#bladeGrad)"/>
  </g>
  <g transform="rotate(240 16 16)">
    <path d="M16 6 L18 8 L18 12 L16 14 L14 12 L14 8 Z" fill="url(#bladeGrad)"/>
  </g>
  <g transform="rotate(300 16 16)">
    <path d="M16 6 L18 8 L18 12 L16 14 L14 12 L14 8 Z" fill="url(#bladeGrad)"/>
  </g>
  
  <!-- Star element seamlessly connected to broken circle -->
  <g transform="translate(20, 6)">
    <path d="M0 -2.5 L1.5 0 L2.5 0 L1.5 1 L0 2.5 L-1.5 1 L-2.5 0 L-1.5 0 Z" fill="url(#circleGrad)"/>
  </g>
</svg>
